# Blender v3.1.2 OBJ File: 'paper plane.blend'
# www.blender.org
mtllib paper plane.mtl
o paper_plane__Plane.002
v -0.594304 0.022664 0.297000
v -0.793233 0.004495 -0.088374
v -0.991906 0.021577 0.297000
v -0.794676 0.002995 -0.088039
v -0.793135 0.001023 0.297000
v -0.793945 0.001023 0.297000
v -0.793540 0.000599 0.297000
v -0.793957 0.001084 -0.290843
v -0.793957 0.001080 -0.291229
v -0.793942 0.001024 -0.291370
v -0.793138 0.001024 -0.291370
v -0.793128 0.001107 -0.291172
v -0.793129 0.001113 -0.290778
v -0.793543 0.000030 -0.293829
v -0.793789 0.000660 -0.290995
v -0.793516 0.000519 -0.294100
v -0.794106 0.001446 -0.291467
v -0.793540 0.000600 -0.291370
v -0.792975 0.001456 -0.291444
v -0.793301 0.000670 -0.292201
v -0.792764 0.002019 -0.289284
v -0.793569 0.000089 -0.294448
v -0.730317 0.017819 -0.070202
v -0.729957 0.017844 -0.069141
v -0.729674 0.017784 -0.069716
v -0.595101 0.020586 0.203667
v -0.594304 0.022664 0.208594
v -0.594550 0.022020 0.205961
v -0.793458 0.005302 -0.017711
v -0.793578 0.005375 -0.015978
v -0.793684 0.004914 -0.016904
v -0.784249 0.020610 0.297000
v -0.785751 0.019667 0.297000
v -0.785143 0.020367 0.297000
v -0.785750 0.019838 -0.241621
v -0.784251 0.020780 -0.236729
v -0.784271 0.020874 -0.236796
v -0.785791 0.019862 -0.241604
v -0.785145 0.020538 -0.239175
v -0.785083 0.020605 -0.240066
v -0.783849 0.020777 -0.236950
v -0.785164 0.020610 -0.239209
v -0.785607 0.020239 -0.241784
v -0.785498 0.021108 -0.088032
v -0.783937 0.022020 -0.087654
v -0.784849 0.021788 -0.087913
v -0.784222 0.020931 -0.231017
v -0.784240 0.020887 -0.231058
v -0.785754 0.019901 -0.237615
v -0.785757 0.019905 -0.237608
v -0.783801 0.020864 -0.231182
v -0.785088 0.020621 -0.235443
v -0.785140 0.020624 -0.234338
v -0.785756 0.019903 -0.237612
v -0.785131 0.020657 -0.234317
v -0.783148 0.024986 -0.032964
v -0.784694 0.024148 -0.031503
v -0.784051 0.024801 -0.032229
v -0.786192 0.028455 0.005964
v -0.784761 0.029408 0.008058
v -0.785630 0.029182 0.007003
v -0.857123 0.017844 -0.069141
v -0.856763 0.017819 -0.070202
v -0.857406 0.017784 -0.069716
v -0.991906 0.021577 0.208594
v -0.991360 0.019387 0.203597
v -0.991745 0.020935 0.206021
v -0.794281 0.003884 -0.015705
v -0.794394 0.003829 -0.017361
v -0.794194 0.003424 -0.016583
v -0.801330 0.019667 0.297000
v -0.802832 0.020610 0.297000
v -0.801937 0.020367 0.297000
v -0.802810 0.020874 -0.236796
v -0.802829 0.020780 -0.236729
v -0.801331 0.019838 -0.241621
v -0.801290 0.019862 -0.241604
v -0.803232 0.020777 -0.236950
v -0.801998 0.020605 -0.240066
v -0.801936 0.020538 -0.239175
v -0.801473 0.020239 -0.241784
v -0.801916 0.020610 -0.239209
v -0.803144 0.022020 -0.087654
v -0.801651 0.021079 -0.088013
v -0.802252 0.021780 -0.087907
v -0.802859 0.020931 -0.231017
v -0.801323 0.019905 -0.237608
v -0.801327 0.019901 -0.237615
v -0.802841 0.020887 -0.231058
v -0.801949 0.020657 -0.234317
v -0.801993 0.020621 -0.235443
v -0.801325 0.019903 -0.237612
v -0.801940 0.020624 -0.234338
v -0.803279 0.020864 -0.231182
v -0.802445 0.024123 -0.031520
v -0.803933 0.024986 -0.032964
v -0.803046 0.024793 -0.032234
v -0.802320 0.029408 0.008058
v -0.800938 0.028442 0.006023
v -0.801465 0.029178 0.007020
v -0.598705 0.008084 0.297000
v -0.600120 0.007112 0.297000
v -0.599251 0.007363 0.297000
v -0.599772 0.008163 0.174287
v -0.599740 0.008340 0.174680
v -0.601274 0.007303 0.169391
v -0.601283 0.007212 0.169395
v -0.599612 0.008641 0.174296
v -0.600308 0.007541 0.171016
v -0.600364 0.007575 0.172043
v -0.600867 0.007208 0.169206
v -0.600377 0.007456 0.171839
v -0.601098 0.007945 0.188732
v -0.599592 0.008881 0.190967
v -0.600202 0.008166 0.189834
v -0.986684 0.007132 0.297000
v -0.988081 0.008110 0.297000
v -0.987548 0.007385 0.297000
v -0.988778 0.008078 0.177922
v -0.987449 0.007089 0.173061
v -0.987458 0.007180 0.173057
v -0.988796 0.008267 0.178337
v -0.988286 0.007346 0.175492
v -0.988362 0.007433 0.174679
v -0.987866 0.007085 0.172872
v -0.988294 0.007470 0.175707
v -0.988891 0.008574 0.177941
v -0.988710 0.008763 0.192317
v -0.987353 0.007784 0.190080
v -0.988199 0.008019 0.191176
vt 0.023161 0.990167
vt 0.023161 0.956081
vt 0.369567 0.949186
vt 0.500278 0.990206
vt 0.515539 0.982130
vt 0.562870 0.902845
vt 0.992019 0.604528
vt 0.992019 0.658692
vt 0.657486 0.940426
vt 0.992019 0.711630
vt 0.992019 0.839412
vt 0.560046 0.011121
vt 0.954909 0.008600
vt 0.954202 0.209708
vt 0.562618 0.893422
vt 0.992019 0.182190
vt 0.964069 0.202014
vt 0.992019 0.153209
vt 0.992019 0.953652
vt 0.659593 0.944690
vt 0.992019 0.844312
vt 0.959486 0.008571
vt 0.990285 0.008375
vt 0.991968 0.143967
vt 0.958940 0.201620
vt 0.505144 0.011151
vt 0.505045 0.981020
vt 0.457565 0.901450
vt 0.460023 0.011137
vt 0.499801 0.982224
vt 0.023161 0.659842
vt 0.023161 0.604498
vt 0.452418 0.902847
vt 0.520156 0.984172
vt 0.992019 0.663455
vt 0.992019 0.706755
vt 0.643320 0.944970
vt 0.495214 0.984273
vt 0.371461 0.945412
vt 0.023161 0.709303
vt 0.023161 0.664498
vt 0.455195 0.011122
vt 0.452643 0.893423
vt 0.057449 0.203556
vt 0.060870 0.008604
vt 0.023161 0.179130
vt 0.023161 0.153391
vt 0.047521 0.195918
vt 0.023161 0.951943
vt 0.023161 0.844247
vt 0.355190 0.945064
vt 0.056068 0.008574
vt 0.052808 0.195525
vt 0.023211 0.143986
vt 0.024895 0.008375
vt 0.992019 0.990167
vt 0.514991 0.990245
vt 0.645234 0.948811
vt 0.992019 0.957831
vt 0.357295 0.940885
vt 0.023161 0.839429
vt 0.023161 0.714094
vt 0.992019 0.599557
vt 0.567174 0.894714
vt 0.958828 0.210831
vt 0.992019 0.187289
vt 0.023161 0.599598
vt 0.023161 0.184235
vt 0.052823 0.204677
vt 0.448086 0.894715
vt 0.497240 0.983136
vt 0.502609 0.986769
vt 0.502371 0.988516
vt 0.502580 0.981706
vt 0.505095 0.985921
vt 0.507629 0.980888
vt 0.507629 0.985387
vt 0.510213 0.981020
vt 0.512701 0.981668
vt 0.510169 0.985911
vt 0.515946 0.984518
vt 0.512659 0.986751
vt 0.524918 0.984665
vt 0.513880 0.988178
vt 0.501369 0.988201
vt 0.490290 0.986222
vt 0.557696 0.901449
vt 0.560270 0.897539
vt 0.561423 0.900014
vt 0.560101 0.902244
vt 0.564739 0.894158
vt 0.564819 0.898787
vt 0.658039 0.942512
vt 0.648270 0.945533
vt 0.650652 0.942486
vt 0.652812 0.946745
vt 0.644324 0.946661
vt 0.450522 0.894158
vt 0.453838 0.900015
vt 0.450442 0.898788
vt 0.454992 0.897540
vt 0.455161 0.902244
vt 0.364120 0.942954
vt 0.366500 0.945961
vt 0.356742 0.942928
vt 0.370443 0.947092
vt 0.361963 0.947127
vt 0.961269 0.201758
vt 0.957776 0.207963
vt 0.956581 0.205743
vt 0.961542 0.206442
vt 0.956361 0.210328
vt 0.055151 0.199611
vt 0.053873 0.201809
vt 0.050401 0.195640
vt 0.055289 0.204174
vt 0.050034 0.200328
vt 0.992019 0.661183
vt 0.991801 0.148446
vt 0.991726 0.841753
vt 0.992019 0.955890
vt 0.992000 0.709030
vt 0.992018 0.601995
vt 0.023320 0.148363
vt 0.023453 0.841728
vt 0.023161 0.954146
vt 0.023188 0.711549
vt 0.023161 0.602035
vt 0.023161 0.662255
vt 0.510094 0.011151
vt 0.507619 0.011151
vt 0.557693 0.011136
vt 0.555218 0.011137
vt 0.457548 0.011137
vt 0.992019 0.184826
vt 0.957261 0.008589
vt 0.023161 0.181808
vt 0.058517 0.008589
vn -0.9318 -0.3629 0.0004
vn 0.9377 -0.3472 0.0101
vn 0.1190 0.9927 -0.0210
vn 0.0732 0.9973 0.0003
vn 0.9324 -0.3615 0.0035
vn -0.0807 -0.9967 0.0080
vn -0.9487 0.3162 0.0049
vn 0.9303 0.3668 0.0001
vn -0.9482 -0.3175 0.0070
vn -0.9169 0.3990 -0.0056
vn 0.9295 0.3687 -0.0023
vn -0.0732 0.9973 0.0003
vn -0.9663 -0.2570 0.0151
vn 0.0807 -0.9967 0.0080
vn 0.9674 0.2532 -0.0033
vn 0.9174 -0.3980 0.0049
vn -0.1190 0.9927 -0.0210
vn -0.1491 -0.9882 0.0341
vn 0.1491 -0.9882 0.0341
vn -0.3429 0.9393 -0.0082
vn 0.7433 0.6420 -0.1882
vn -0.3458 0.8680 -0.3563
vn -0.9482 -0.3175 0.0069
vn 0.3488 -0.8557 0.3823
vn 0.7433 0.6419 -0.1882
vn -0.3428 0.9394 -0.0082
vn 0.9303 0.3669 0.0000
vn -0.0001 1.0000 0.0000
vn 0.7432 0.6420 -0.1882
vn 0.3489 -0.8556 0.3823
vn -0.9303 0.3667 0.0001
vn -0.3522 -0.8556 0.3794
vn 0.3730 0.9278 -0.0121
vn 0.7431 0.6422 -0.1881
vn -0.3521 -0.8556 0.3794
vn 0.3517 0.8679 -0.3508
vn 0.7433 0.6420 -0.1881
vn 0.3731 0.9277 -0.0121
vn 0.3200 0.9415 -0.1055
vn -0.3459 0.8680 -0.3564
vn 0.7432 0.6421 -0.1882
vn 0.3518 0.8678 -0.3509
vn -0.9303 0.3668 0.0001
vn -0.5321 0.8467 0.0003
vn -0.6140 -0.6886 0.3858
vn 0.0733 0.9973 0.0003
vn -0.9050 0.1085 0.4114
vn -0.6140 -0.6885 0.3859
vn -0.5320 0.8467 0.0003
vn 0.5028 -0.8639 0.0310
vn -0.9050 0.1085 0.4113
vn 0.5027 -0.8639 0.0310
vn 0.9429 -0.0992 -0.3180
vn 0.7043 0.5931 -0.3902
vn -0.4989 0.8665 -0.0151
vn 0.5157 -0.8568 0.0058
vn 0.7042 0.5931 -0.3902
vn 0.9429 -0.0993 -0.3180
vn 0.9176 -0.3976 0.0049
vn 0.3514 0.8680 -0.3508
vn 0.7042 0.5932 -0.3902
vn 0.5156 -0.8568 0.0058
vn -0.9167 0.3995 -0.0057
vn 0.3524 0.8676 -0.3509
vn 0.1491 -0.9882 0.0342
vn 0.9050 0.1085 0.4113
vn 0.6140 -0.6886 0.3859
vn -0.5126 -0.8581 0.0307
vn 0.5320 0.8467 0.0003
vn 0.6140 -0.6885 0.3859
vn 0.9050 0.1085 0.4114
vn 0.3487 -0.8557 0.3823
vn 0.6139 -0.6886 0.3858
vn 0.5321 0.8467 0.0003
vn -0.9482 -0.3176 0.0069
vn 0.3488 -0.8556 0.3824
vn 0.5114 0.8592 -0.0148
vn -0.7043 0.5931 -0.3902
vn -0.9429 -0.0992 -0.3180
vn 0.9293 0.3694 -0.0024
vn -0.3465 0.8678 -0.3563
vn -0.9321 -0.3623 0.0004
vn -0.5304 -0.8477 0.0056
vn -0.7040 0.5934 -0.3902
vn -0.3452 0.8683 -0.3562
vn -0.9429 -0.0993 -0.3180
vn -0.7042 0.5931 -0.3902
vn -0.5304 -0.8477 0.0055
vn -0.3224 -0.8553 0.4056
vn -0.9245 -0.1982 0.3257
vn -0.5558 0.8313 0.0055
vn 0.5017 -0.8647 0.0241
vn 0.5018 -0.8647 0.0241
vn -0.5559 0.8312 0.0056
vn -0.9245 -0.1982 0.3256
vn 0.9674 0.2531 -0.0033
vn 0.5807 0.8141 -0.0038
vn 0.9276 -0.2184 0.3030
vn 0.2260 -0.8814 0.4148
vn 0.5807 0.8141 -0.0037
vn -0.5484 -0.8356 0.0330
vn -0.5483 -0.8356 0.0330
vn 0.9377 -0.3473 0.0101
vn 0.3732 0.9277 -0.0121
vn -0.9169 0.3991 -0.0056
vn 0.9174 -0.3979 0.0049
vn -0.4989 0.8665 -0.0152
vn -0.9663 -0.2569 0.0151
vn 0.2259 -0.8814 0.4149
vn 0.0807 -0.9967 0.0081
vn -0.5305 -0.8477 0.0056
vn -0.9318 -0.3630 0.0004
vn 0.9295 0.3687 -0.0024
vn -0.9482 -0.3176 0.0070
vn 0.9296 0.3685 -0.0023
vn -0.3428 0.9394 -0.0083
vn -0.3427 0.9394 -0.0083
vn -0.9483 -0.3172 0.0070
vn -0.9319 -0.3626 0.0005
vn -0.3456 0.8681 -0.3563
vn -0.3458 0.8680 -0.3564
vn 0.9295 0.3688 -0.0024
vn -0.0000 1.0000 0.0000
vn 0.9303 0.3668 0.0000
vn -0.9303 0.3668 0.0002
vn 0.5320 0.8467 0.0002
vn 0.5018 -0.8646 0.0241
vn -0.5558 0.8313 0.0070
vn -0.5559 0.8312 0.0055
vn 0.0732 0.9973 0.0030
vn 0.9674 0.2532 -0.0047
vn 0.5807 0.8141 -0.0019
g paper_plane__Plane.002_papier
usemtl papier
s 1
f 4/1/1 84/2/1 88/3/1 14/4/1
f 12/5/2 38/6/2 59/7/2 30/8/2
f 47/9/3 56/10/3 24/11/3
f 32/12/4 102/13/4 107/14/4 36/15/4
f 114/16/5 105/17/5 26/18/5
f 45/19/6 48/20/6 23/21/6
f 101/22/7 1/23/7 27/24/7 104/25/7
f 6/26/8 10/27/8 76/28/8 71/29/8
f 9/30/9 68/31/9 99/32/9 77/33/9
f 13/34/10 29/35/10 57/36/10 50/37/10
f 8/38/11 87/39/11 95/40/11 69/41/11
f 72/42/12 75/43/12 120/44/12 116/45/12
f 128/46/13 66/47/13 122/48/13
f 83/49/14 63/50/14 89/51/14
f 117/52/15 119/53/15 65/54/15 3/55/15
f 2/56/16 14/57/16 49/58/16 44/59/16
f 86/60/17 62/61/17 96/62/17
f 60/63/18 37/64/18 106/65/18 113/66/18
f 98/67/19 129/68/19 121/69/19 74/70/19
f 8/38/11 15/71/20 16/72/21 22/73/22
f 9/30/23 17/74/24 16/75/25 15/71/26
f 10/27/27 18/76/28 16/77/29 17/74/30
f 11/78/31 19/79/32 16/80/21 18/76/28
f 12/5/2 20/81/33 16/82/34 19/79/35
f 13/34/10 21/83/36 16/84/37 20/81/38
f 14/4/39 22/73/40 16/85/41 21/86/42
f 35/87/43 39/88/44 40/89/45 43/90/32
f 36/15/46 41/91/47 40/89/48 39/88/49
f 37/64/18 42/92/50 40/89/45 41/91/51
f 38/6/2 43/90/32 40/89/48 42/92/52
f 47/9/3 51/93/53 52/94/54 55/95/55
f 48/20/6 53/96/56 52/94/57 51/93/58
f 49/58/59 54/97/60 52/94/61 53/96/62
f 50/37/63 55/95/55 52/94/61 54/97/64
f 74/70/65 78/98/66 79/99/67 82/100/68
f 75/43/12 80/101/69 79/99/70 78/98/71
f 76/28/8 81/102/72 79/99/73 80/101/74
f 77/33/75 82/100/68 79/99/67 81/102/76
f 86/60/17 90/103/77 91/104/78 94/105/79
f 87/39/80 92/106/81 91/104/78 90/103/77
f 88/3/82 93/107/83 91/104/84 92/106/85
f 89/51/14 94/105/86 91/104/87 93/107/88
f 104/25/7 108/108/89 109/109/90 112/110/91
f 105/17/5 110/111/92 109/109/90 108/108/89
f 106/65/18 111/112/51 109/109/90 110/111/93
f 107/14/4 112/110/94 109/109/95 111/112/51
f 119/53/96 123/113/97 124/114/98 127/115/99
f 120/44/12 125/116/66 124/114/98 123/113/100
f 121/69/65 126/117/101 124/114/98 125/116/66
f 122/48/13 127/115/99 124/114/98 126/117/102
f 12/5/2 30/8/103 31/118/104 20/81/33
f 20/81/38 31/118/104 29/35/105 13/34/10
f 104/25/7 27/24/7 28/119/89 108/108/89
f 108/108/89 28/119/89 26/18/5 105/17/5
f 47/9/3 24/11/3 25/120/58 51/93/53
f 51/93/58 25/120/58 23/21/6 48/20/6
f 11/78/31 35/87/43 43/90/32 19/79/32
f 19/79/35 43/90/32 38/6/2 12/5/2
f 13/34/10 50/37/63 54/97/64 21/83/36
f 21/83/42 54/97/60 49/58/59 14/57/39
f 44/59/106 49/58/59 53/96/62 46/121/56
f 46/121/56 53/96/56 48/20/6 45/19/6
f 50/37/63 57/36/10 58/122/107 55/95/55
f 55/95/55 58/122/55 56/10/3 47/9/3
f 37/64/18 60/63/18 61/123/52 42/92/50
f 42/92/52 61/123/52 59/7/103 38/6/2
f 122/48/13 66/47/108 67/124/109 127/115/99
f 127/115/99 67/124/99 65/54/96 119/53/96
f 89/51/14 63/50/14 64/125/86 94/105/86
f 94/105/79 64/125/86 62/61/17 86/60/17
f 83/49/110 89/51/14 93/107/88 85/126/111
f 85/126/88 93/107/83 88/3/82 84/2/112
f 86/60/17 96/62/17 97/127/77 90/103/77
f 90/103/77 97/127/77 95/40/113 87/39/80
f 77/33/75 99/32/114 100/128/68 82/100/68
f 82/100/68 100/128/68 98/67/65 74/70/65
f 8/38/115 69/41/115 70/129/116 15/71/116
f 15/71/26 70/129/117 68/31/118 9/30/23
f 9/30/23 77/33/75 81/102/76 17/74/24
f 17/74/30 81/102/72 76/28/8 10/27/27
f 14/4/119 88/3/82 92/106/85 22/73/120
f 22/73/121 92/106/81 87/39/80 8/38/122
f 5/130/31 11/78/31 18/76/28 7/131/123
f 7/131/123 18/76/28 10/27/27 6/26/124
f 32/12/4 36/15/46 39/88/49 34/132/44
f 34/132/44 39/88/44 35/87/43 33/133/125
f 71/29/8 76/28/8 80/101/74 73/134/126
f 73/134/74 80/101/69 75/43/12 72/42/12
f 36/15/46 107/14/4 111/112/51 41/91/47
f 41/91/51 111/112/51 106/65/18 37/64/18
f 105/17/5 114/16/5 115/135/127 110/111/92
f 110/111/93 115/135/92 113/66/18 106/65/18
f 101/22/7 104/25/7 112/110/91 103/136/128
f 103/136/129 112/110/94 107/14/4 102/13/130
f 74/70/65 121/69/65 125/116/66 78/98/66
f 78/98/71 125/116/66 120/44/12 75/43/12
f 128/46/13 122/48/13 126/117/102 130/137/101
f 130/137/101 126/117/101 121/69/65 129/68/19
f 119/53/96 117/52/131 118/138/100 123/113/97
f 123/113/100 118/138/132 116/45/12 120/44/12
f 5/130/43 33/133/43 35/87/43 11/78/43
